<?xml version="1.0" encoding="UTF-8" standalone="no"?>
<svg
   width="100mm"
   height="100mm"
   version="1.1"
   viewBox="0 0 100 100"
   id="svg12"
   sodipodi:docname="black.svg"
   inkscape:version="1.1 (1:1.1+202105261517+ce6663b3b7)"
   inkscape:export-filename="/home/tim/dev/inspector-extension/logo/38.png"
   inkscape:export-xdpi="9.6519995"
   inkscape:export-ydpi="9.6519995"
   xmlns:inkscape="http://www.inkscape.org/namespaces/inkscape"
   xmlns:sodipodi="http://sodipodi.sourceforge.net/DTD/sodipodi-0.dtd"
   xmlns="http://www.w3.org/2000/svg"
   xmlns:svg="http://www.w3.org/2000/svg">
  <defs
     id="defs16" />
  <sodipodi:namedview
     id="namedview14"
     pagecolor="#353535"
     bordercolor="#666666"
     borderopacity="1.0"
     inkscape:pageshadow="2"
     inkscape:pageopacity="0"
     inkscape:pagecheckerboard="0"
     inkscape:document-units="mm"
     showgrid="false"
     inkscape:zoom="1.1509375"
     inkscape:cx="189.41081"
     inkscape:cy="198.5338"
     inkscape:window-width="1920"
     inkscape:window-height="1055"
     inkscape:window-x="0"
     inkscape:window-y="502"
     inkscape:window-maximized="1"
     inkscape:current-layer="g10" />
  <g
     fill="#000000"
     stroke="#000000"
     id="g10"
     transform="matrix(0.97534116,0,0,0.97535741,1.023017,1.0242124)">
    <g
       id="g11587"
       style="opacity:0.5">
      <ellipse
         style="opacity:1;fill:#ffffff;fill-opacity:0.998455;stroke:none;stroke-width:16.0992"
         id="path877"
         cx="42.269295"
         cy="42.267361"
         rx="43.318176"
         ry="43.317455" />
      <rect
         transform="matrix(0.70711284,0.70710072,-0.70711284,0.70710072,0,0)"
         x="90.008667"
         y="-7.0450745"
         width="46.107296"
         height="14.088454"
         ry="7.0463262"
         stroke-width="0.2767"
         id="rect4-6"
         style="opacity:1;fill:none;fill-opacity:0.316362;stroke:#ffffff;stroke-width:4.30537;stroke-miterlimit:4;stroke-dasharray:none;stroke-opacity:1" />
    </g>
    <ellipse
       transform="matrix(0.53287508,0.84619392,-0.84619241,0.53287747,0,0)"
       cx="58.45927"
       cy="-13.282527"
       fill="none"
       stroke-width="9.90296"
       id="circle2"
       rx="34.487236"
       ry="34.48719" />
    <rect
       transform="matrix(0.70710567,0.70710789,-0.70710567,0.70710789,0,0)"
       x="92.940193"
       y="-6.4533119"
       width="42.226551"
       height="12.902661"
       ry="6.4532533"
       stroke-width="0.266034"
       id="rect4" />
    <g
       transform="matrix(5.600438,0,0,6.0436848,-2.8235802,-11.108947)"
       stroke="none"
       id="g8">
      <path
         d="m 8.811,6.091 a 0.5885,0.5885 0 0 1 0.8333,0 l 2.354,2.354 a 0.5885,0.5885 0 0 1 0,0.8333 l -2.354,2.354 A 0.58923208,0.58923208 0 0 1 8.811,10.799 L 10.749,8.862 8.811,6.925 a 0.5885,0.5885 0 0 1 0,-0.8333 z m -1.521,0 a 0.5885,0.5885 0 0 0 -0.8333,0 l -2.354,2.354 a 0.5885,0.5885 0 0 0 0,0.8333 l 2.354,2.354 A 0.58923208,0.58923208 0 0 0 7.29,10.799 L 5.352,8.862 7.29,6.925 a 0.5885,0.5885 0 0 0 0,-0.8333 z"
         stroke-width="1.177"
         id="path6" />
    </g>
  </g>
</svg>
